<svg width="64" height="64" viewBox="0 0 64 64" fill="none" xmlns="http://www.w3.org/2000/svg">
<rect width="64" height="64" rx="32" fill="#F9AB24"/>
<path d="M31.9563 41.2338C30.6836 41.2338 29.5501 41.015 28.5558 40.5775C27.5671 40.1343 26.7859 39.5264 26.212 38.7536C25.6438 37.9752 25.3512 37.0775 25.3342 36.0605H29.0501C29.0728 36.4866 29.212 36.8616 29.4677 37.1855C29.729 37.5036 30.0756 37.7508 30.5075 37.9269C30.9393 38.1031 31.4251 38.1911 31.9648 38.1911C32.5273 38.1911 33.0245 38.0917 33.4563 37.8928C33.8881 37.694 34.2262 37.4184 34.4705 37.0661C34.7148 36.7139 34.837 36.3076 34.837 35.8474C34.837 35.3815 34.7063 34.9695 34.445 34.6116C34.1893 34.248 33.82 33.9639 33.337 33.7593C32.8597 33.5548 32.2915 33.4525 31.6325 33.4525H30.0046V30.7423H31.6325C32.1893 30.7423 32.6808 30.6457 33.1069 30.4525C33.5387 30.2593 33.8739 29.9923 34.1126 29.6514C34.3512 29.3048 34.4705 28.9014 34.4705 28.4411C34.4705 28.0036 34.3654 27.6201 34.1552 27.2906C33.9506 26.9553 33.6609 26.694 33.2859 26.5065C32.9165 26.319 32.4847 26.2252 31.9904 26.2252C31.4904 26.2252 31.033 26.3161 30.6183 26.498C30.2035 26.6741 29.8711 26.9269 29.6211 27.2565C29.3711 27.586 29.2376 27.9724 29.2205 28.4156H25.6836C25.7006 27.4099 25.9876 26.5235 26.5444 25.7565C27.1012 24.9894 27.8512 24.39 28.7944 23.9582C29.7433 23.5207 30.8143 23.3019 32.0075 23.3019C33.212 23.3019 34.266 23.5207 35.1694 23.9582C36.0728 24.3957 36.7745 24.9866 37.2745 25.7309C37.7802 26.4695 38.0302 27.2991 38.0245 28.2195C38.0302 29.1968 37.7262 30.0122 37.1126 30.6656C36.5046 31.319 35.712 31.7338 34.7347 31.9099V32.0463C36.0188 32.211 36.9961 32.657 37.6665 33.3843C38.3427 34.1059 38.6779 35.0093 38.6722 36.0945C38.6779 37.0889 38.391 37.9724 37.8114 38.7451C37.2376 39.5178 36.445 40.1258 35.4336 40.569C34.4222 41.0122 33.2631 41.2338 31.9563 41.2338Z" fill="white"/>
</svg>
