<svg width="64" height="64" viewBox="0 0 64 64" fill="none" xmlns="http://www.w3.org/2000/svg">
<rect width="64" height="64" rx="32" fill="#4CAE60"/>
<path d="M25.8562 40.9951V38.336L32.0692 32.5832C32.5977 32.0718 33.0408 31.6116 33.3988 31.2025C33.7624 30.7934 34.038 30.3928 34.2255 30.0008C34.413 29.6031 34.5067 29.1741 34.5067 28.7139C34.5067 28.2025 34.3903 27.7622 34.1573 27.3928C33.9244 27.0178 33.6062 26.7309 33.2028 26.532C32.7994 26.3275 32.342 26.2252 31.8306 26.2252C31.2965 26.2252 30.8306 26.3332 30.4329 26.5491C30.0352 26.765 29.7283 27.0747 29.5124 27.4781C29.2965 27.8815 29.1886 28.3616 29.1886 28.9184H25.6857C25.6857 27.7764 25.9442 26.7849 26.4613 25.944C26.9783 25.1031 27.7028 24.4525 28.6346 23.9923C29.5664 23.532 30.6403 23.3019 31.8562 23.3019C33.1062 23.3019 34.1942 23.5235 35.1204 23.9667C36.0522 24.4042 36.7766 25.0122 37.2937 25.7906C37.8107 26.569 38.0692 27.461 38.0692 28.4667C38.0692 29.1258 37.9386 29.7764 37.6772 30.4184C37.4215 31.0605 36.9641 31.7735 36.305 32.5576C35.646 33.336 34.717 34.2707 33.5181 35.3616L30.9698 37.8588V37.9781H38.2994V40.9951H25.8562Z" fill="white"/>
</svg>
