<svg width="64" height="64" viewBox="0 0 64 64" fill="none" xmlns="http://www.w3.org/2000/svg">
<g clip-path="url(#clip0_242_219)">
<rect width="64" height="64" rx="16" fill="#4CAE4F" fill-opacity="0.1"/>
<path d="M41.3337 34.6667C43.3203 32.72 45.3337 30.3867 45.3337 27.3333C45.3337 25.3884 44.561 23.5232 43.1858 22.1479C41.8105 20.7726 39.9452 20 38.0003 20C35.6537 20 34.0003 20.6667 32.0003 22.6667C30.0003 20.6667 28.347 20 26.0003 20C24.0554 20 22.1901 20.7726 20.8149 22.1479C19.4396 23.5232 18.667 25.3884 18.667 27.3333C18.667 30.4 20.667 32.7333 22.667 34.6667L32.0003 44L41.3337 34.6667Z" stroke="#4CAE4F" stroke-width="2.66667" stroke-linecap="round" stroke-linejoin="round"/>
</g>
<defs>
<clipPath id="clip0_242_219">
<rect width="64" height="64" fill="white"/>
</clipPath>
</defs>
</svg>
