<svg width="465" height="354" viewBox="0 0 465 354" fill="none" xmlns="http://www.w3.org/2000/svg">
<g filter="url(#filter0_d_79_542)">
<rect x="149.5" y="3.5" width="150" height="150" rx="30" fill="#2E80FA"/>
<path d="M173.5 79H209.5V33.5H215L262.5 123.5V65.5H276" stroke="white" stroke-width="5"/>
</g>
<path d="M36.0455 221.455H48.1818L61 252.727H61.5455L74.3636 221.455H86.5V268H76.9545V237.705H76.5682L64.5227 267.773H58.0227L45.9773 237.591H45.5909V268H36.0455V221.455ZM111.615 268.682C108.024 268.682 104.933 267.955 102.342 266.5C99.7667 265.03 97.7819 262.955 96.388 260.273C94.994 257.576 94.297 254.386 94.297 250.705C94.297 247.114 94.994 243.962 96.388 241.25C97.7819 238.538 99.744 236.424 102.274 234.909C104.82 233.394 107.805 232.636 111.229 232.636C113.532 232.636 115.676 233.008 117.661 233.75C119.661 234.477 121.403 235.576 122.888 237.045C124.388 238.515 125.555 240.364 126.388 242.591C127.221 244.803 127.638 247.394 127.638 250.364V253.023H98.1607V247.023H118.524C118.524 245.629 118.221 244.394 117.615 243.318C117.009 242.242 116.168 241.402 115.092 240.795C114.032 240.174 112.797 239.864 111.388 239.864C109.918 239.864 108.615 240.205 107.479 240.886C106.358 241.553 105.479 242.455 104.842 243.591C104.206 244.712 103.88 245.962 103.865 247.341V253.045C103.865 254.773 104.183 256.265 104.82 257.523C105.471 258.78 106.388 259.75 107.57 260.432C108.752 261.114 110.153 261.455 111.774 261.455C112.85 261.455 113.835 261.303 114.729 261C115.623 260.697 116.388 260.242 117.024 259.636C117.661 259.03 118.146 258.288 118.479 257.409L127.433 258C126.979 260.152 126.047 262.03 124.638 263.636C123.244 265.227 121.441 266.47 119.229 267.364C117.032 268.242 114.494 268.682 111.615 268.682ZM148.1 268.568C145.448 268.568 143.047 267.886 140.895 266.523C138.759 265.144 137.062 263.121 135.804 260.455C134.562 257.773 133.941 254.485 133.941 250.591C133.941 246.591 134.585 243.265 135.872 240.614C137.16 237.947 138.872 235.955 141.009 234.636C143.16 233.303 145.516 232.636 148.077 232.636C150.032 232.636 151.66 232.97 152.963 233.636C154.282 234.288 155.342 235.106 156.145 236.091C156.963 237.061 157.585 238.015 158.009 238.955H158.304V221.455H167.963V268H158.418V262.409H158.009C157.554 263.379 156.91 264.341 156.077 265.295C155.259 266.235 154.191 267.015 152.872 267.636C151.569 268.258 149.979 268.568 148.1 268.568ZM151.168 260.864C152.729 260.864 154.047 260.439 155.122 259.591C156.213 258.727 157.047 257.523 157.622 255.977C158.213 254.432 158.509 252.621 158.509 250.545C158.509 248.47 158.221 246.667 157.645 245.136C157.069 243.606 156.236 242.424 155.145 241.591C154.054 240.758 152.729 240.341 151.168 240.341C149.577 240.341 148.236 240.773 147.145 241.636C146.054 242.5 145.229 243.697 144.668 245.227C144.107 246.758 143.827 248.53 143.827 250.545C143.827 252.576 144.107 254.371 144.668 255.932C145.244 257.477 146.069 258.689 147.145 259.568C148.236 260.432 149.577 260.864 151.168 260.864ZM218.454 237.75H208.499C208.317 236.462 207.946 235.318 207.385 234.318C206.825 233.303 206.105 232.439 205.226 231.727C204.348 231.015 203.332 230.47 202.181 230.091C201.045 229.712 199.81 229.523 198.476 229.523C196.067 229.523 193.969 230.121 192.181 231.318C190.393 232.5 189.007 234.227 188.022 236.5C187.037 238.758 186.545 241.5 186.545 244.727C186.545 248.045 187.037 250.833 188.022 253.091C189.022 255.348 190.416 257.053 192.204 258.205C193.992 259.356 196.06 259.932 198.408 259.932C199.726 259.932 200.946 259.758 202.067 259.409C203.204 259.061 204.211 258.553 205.09 257.886C205.969 257.205 206.696 256.379 207.272 255.409C207.863 254.439 208.272 253.333 208.499 252.091L218.454 252.136C218.196 254.273 217.552 256.333 216.522 258.318C215.507 260.288 214.135 262.053 212.408 263.614C210.696 265.159 208.651 266.386 206.272 267.295C203.908 268.189 201.234 268.636 198.249 268.636C194.098 268.636 190.385 267.697 187.113 265.818C183.855 263.939 181.279 261.22 179.385 257.659C177.507 254.098 176.567 249.788 176.567 244.727C176.567 239.652 177.522 235.333 179.431 231.773C181.34 228.212 183.931 225.5 187.204 223.636C190.476 221.758 194.158 220.818 198.249 220.818C200.946 220.818 203.446 221.197 205.749 221.955C208.067 222.712 210.12 223.818 211.908 225.273C213.696 226.712 215.151 228.477 216.272 230.568C217.408 232.659 218.135 235.053 218.454 237.75ZM242.381 268.682C238.851 268.682 235.798 267.932 233.222 266.432C230.662 264.917 228.684 262.811 227.29 260.114C225.897 257.402 225.2 254.258 225.2 250.682C225.2 247.076 225.897 243.924 227.29 241.227C228.684 238.515 230.662 236.409 233.222 234.909C235.798 233.394 238.851 232.636 242.381 232.636C245.912 232.636 248.957 233.394 251.518 234.909C254.093 236.409 256.078 238.515 257.472 241.227C258.866 243.924 259.563 247.076 259.563 250.682C259.563 254.258 258.866 257.402 257.472 260.114C256.078 262.811 254.093 264.917 251.518 266.432C248.957 267.932 245.912 268.682 242.381 268.682ZM242.427 261.182C244.033 261.182 245.374 260.727 246.45 259.818C247.525 258.894 248.336 257.636 248.881 256.045C249.442 254.455 249.722 252.644 249.722 250.614C249.722 248.583 249.442 246.773 248.881 245.182C248.336 243.591 247.525 242.333 246.45 241.409C245.374 240.485 244.033 240.023 242.427 240.023C240.806 240.023 239.442 240.485 238.336 241.409C237.245 242.333 236.419 243.591 235.859 245.182C235.313 246.773 235.04 248.583 235.04 250.614C235.04 252.644 235.313 254.455 235.859 256.045C236.419 257.636 237.245 258.894 238.336 259.818C239.442 260.727 240.806 261.182 242.427 261.182ZM276.82 247.818V268H267.139V233.091H276.366V239.25H276.775C277.548 237.22 278.843 235.614 280.661 234.432C282.48 233.235 284.684 232.636 287.275 232.636C289.699 232.636 291.813 233.167 293.616 234.227C295.419 235.288 296.82 236.803 297.82 238.773C298.82 240.727 299.32 243.061 299.32 245.773V268H289.639V247.5C289.654 245.364 289.108 243.697 288.002 242.5C286.896 241.288 285.373 240.682 283.434 240.682C282.131 240.682 280.98 240.962 279.98 241.523C278.995 242.083 278.222 242.902 277.661 243.977C277.116 245.038 276.836 246.318 276.82 247.818ZM317.913 247.818V268H308.231V233.091H317.458V239.25H317.867C318.64 237.22 319.936 235.614 321.754 234.432C323.572 233.235 325.777 232.636 328.367 232.636C330.792 232.636 332.905 233.167 334.708 234.227C336.511 235.288 337.913 236.803 338.913 238.773C339.913 240.727 340.413 243.061 340.413 245.773V268H330.731V247.5C330.746 245.364 330.201 243.697 329.095 242.5C327.989 241.288 326.466 240.682 324.527 240.682C323.224 240.682 322.072 240.962 321.072 241.523C320.087 242.083 319.314 242.902 318.754 243.977C318.208 245.038 317.928 246.318 317.913 247.818ZM365.233 268.682C361.642 268.682 358.551 267.955 355.96 266.5C353.384 265.03 351.399 262.955 350.005 260.273C348.612 257.576 347.915 254.386 347.915 250.705C347.915 247.114 348.612 243.962 350.005 241.25C351.399 238.538 353.362 236.424 355.892 234.909C358.437 233.394 361.422 232.636 364.846 232.636C367.149 232.636 369.293 233.008 371.278 233.75C373.278 234.477 375.021 235.576 376.505 237.045C378.005 238.515 379.172 240.364 380.005 242.591C380.839 244.803 381.255 247.394 381.255 250.364V253.023H351.778V247.023H372.142C372.142 245.629 371.839 244.394 371.233 243.318C370.627 242.242 369.786 241.402 368.71 240.795C367.649 240.174 366.415 239.864 365.005 239.864C363.536 239.864 362.233 240.205 361.096 240.886C359.975 241.553 359.096 242.455 358.46 243.591C357.824 244.712 357.498 245.962 357.483 247.341V253.045C357.483 254.773 357.801 256.265 358.437 257.523C359.089 258.78 360.005 259.75 361.187 260.432C362.369 261.114 363.771 261.455 365.392 261.455C366.468 261.455 367.452 261.303 368.346 261C369.24 260.697 370.005 260.242 370.642 259.636C371.278 259.03 371.763 258.288 372.096 257.409L381.051 258C380.596 260.152 379.665 262.03 378.255 263.636C376.862 265.227 375.058 266.47 372.846 267.364C370.649 268.242 368.112 268.682 365.233 268.682ZM404.626 268.682C401.051 268.682 397.975 267.924 395.399 266.409C392.838 264.879 390.869 262.758 389.49 260.045C388.126 257.333 387.445 254.212 387.445 250.682C387.445 247.106 388.134 243.97 389.513 241.273C390.907 238.561 392.884 236.447 395.445 234.932C398.005 233.402 401.051 232.636 404.581 232.636C407.626 232.636 410.293 233.189 412.581 234.295C414.869 235.402 416.679 236.955 418.013 238.955C419.346 240.955 420.081 243.303 420.217 246H411.081C410.823 244.258 410.142 242.856 409.035 241.795C407.945 240.72 406.513 240.182 404.74 240.182C403.24 240.182 401.929 240.591 400.808 241.409C399.702 242.212 398.838 243.386 398.217 244.932C397.596 246.477 397.285 248.348 397.285 250.545C397.285 252.773 397.588 254.667 398.195 256.227C398.816 257.788 399.687 258.977 400.808 259.795C401.929 260.614 403.24 261.023 404.74 261.023C405.846 261.023 406.838 260.795 407.717 260.341C408.611 259.886 409.346 259.227 409.922 258.364C410.513 257.485 410.899 256.432 411.081 255.205H420.217C420.066 257.871 419.338 260.22 418.035 262.25C416.748 264.265 414.967 265.841 412.695 266.977C410.422 268.114 407.732 268.682 404.626 268.682ZM446.264 233.091V240.364H425.242V233.091H446.264ZM430.014 224.727H439.696V257.273C439.696 258.167 439.832 258.864 440.105 259.364C440.378 259.848 440.757 260.189 441.242 260.386C441.742 260.583 442.317 260.682 442.969 260.682C443.423 260.682 443.878 260.644 444.332 260.568C444.787 260.477 445.136 260.409 445.378 260.364L446.901 267.568C446.416 267.72 445.734 267.894 444.855 268.091C443.976 268.303 442.908 268.432 441.651 268.477C439.317 268.568 437.272 268.258 435.514 267.545C433.772 266.833 432.416 265.727 431.446 264.227C430.476 262.727 429.999 260.833 430.014 258.545V224.727Z" fill="#1D283A"/>
<path d="M49.4969 323.727H52.7242L59.1788 334.591H59.4515L65.906 323.727H69.1333L60.7242 337.409V347H57.906V337.409L49.4969 323.727ZM77.6767 347.364C76.101 347.364 74.7184 346.989 73.529 346.239C72.3472 345.489 71.4229 344.439 70.7563 343.091C70.0972 341.742 69.7676 340.167 69.7676 338.364C69.7676 336.545 70.0972 334.958 70.7563 333.602C71.4229 332.246 72.3472 331.193 73.529 330.443C74.7184 329.693 76.101 329.318 77.6767 329.318C79.2525 329.318 80.6313 329.693 81.8131 330.443C83.0025 331.193 83.9267 332.246 84.5858 333.602C85.2525 334.958 85.5858 336.545 85.5858 338.364C85.5858 340.167 85.2525 341.742 84.5858 343.091C83.9267 344.439 83.0025 345.489 81.8131 346.239C80.6313 346.989 79.2525 347.364 77.6767 347.364ZM77.6767 344.955C78.8737 344.955 79.8585 344.648 80.6313 344.034C81.404 343.42 81.976 342.614 82.3472 341.614C82.7184 340.614 82.904 339.53 82.904 338.364C82.904 337.197 82.7184 336.11 82.3472 335.102C81.976 334.095 81.404 333.28 80.6313 332.659C79.8585 332.038 78.8737 331.727 77.6767 331.727C76.4797 331.727 75.4949 332.038 74.7222 332.659C73.9494 333.28 73.3775 334.095 73.0063 335.102C72.635 336.11 72.4494 337.197 72.4494 338.364C72.4494 339.53 72.635 340.614 73.0063 341.614C73.3775 342.614 73.9494 343.42 74.7222 344.034C75.4949 344.648 76.4797 344.955 77.6767 344.955ZM101.32 339.864V329.545H104.001V347H101.32V344.045H101.138C100.729 344.932 100.092 345.686 99.2286 346.307C98.365 346.92 97.2741 347.227 95.9559 347.227C94.865 347.227 93.8953 346.989 93.0468 346.511C92.1983 346.027 91.5317 345.299 91.0468 344.33C90.562 343.352 90.3196 342.121 90.3196 340.636V329.545H93.0014V340.455C93.0014 341.727 93.3574 342.742 94.0696 343.5C94.7892 344.258 95.7059 344.636 96.8196 344.636C97.4862 344.636 98.1642 344.466 98.8536 344.125C99.5506 343.784 100.134 343.261 100.604 342.557C101.081 341.852 101.32 340.955 101.32 339.864ZM109.553 347V329.545H112.144V332.182H112.326C112.644 331.318 113.22 330.617 114.053 330.08C114.887 329.542 115.826 329.273 116.871 329.273C117.068 329.273 117.315 329.277 117.61 329.284C117.906 329.292 118.129 329.303 118.281 329.318V332.045C118.19 332.023 117.981 331.989 117.656 331.943C117.337 331.89 117 331.864 116.644 331.864C115.796 331.864 115.038 332.042 114.371 332.398C113.712 332.746 113.19 333.231 112.803 333.852C112.425 334.466 112.235 335.167 112.235 335.955V347H109.553ZM134.421 336.5V347H131.74V323.727H134.421V332.273H134.649C135.058 331.371 135.671 330.655 136.49 330.125C137.315 329.587 138.414 329.318 139.785 329.318C140.974 329.318 142.016 329.557 142.91 330.034C143.804 330.504 144.497 331.227 144.99 332.205C145.49 333.174 145.74 334.409 145.74 335.909V347H143.058V336.091C143.058 334.705 142.698 333.633 141.978 332.875C141.266 332.11 140.277 331.727 139.012 331.727C138.133 331.727 137.346 331.913 136.649 332.284C135.959 332.655 135.414 333.197 135.012 333.909C134.618 334.621 134.421 335.485 134.421 336.5ZM158.604 347.364C156.922 347.364 155.471 346.992 154.252 346.25C153.04 345.5 152.104 344.455 151.445 343.114C150.793 341.765 150.468 340.197 150.468 338.409C150.468 336.621 150.793 335.045 151.445 333.682C152.104 332.311 153.021 331.242 154.195 330.477C155.377 329.705 156.755 329.318 158.331 329.318C159.24 329.318 160.138 329.47 161.024 329.773C161.911 330.076 162.718 330.568 163.445 331.25C164.172 331.924 164.752 332.818 165.184 333.932C165.615 335.045 165.831 336.417 165.831 338.045V339.182H152.377V336.864H163.104C163.104 335.879 162.907 335 162.513 334.227C162.127 333.455 161.574 332.845 160.854 332.398C160.142 331.951 159.301 331.727 158.331 331.727C157.263 331.727 156.339 331.992 155.559 332.523C154.786 333.045 154.191 333.727 153.774 334.568C153.358 335.409 153.149 336.311 153.149 337.273V338.818C153.149 340.136 153.377 341.254 153.831 342.17C154.293 343.08 154.934 343.773 155.752 344.25C156.57 344.72 157.521 344.955 158.604 344.955C159.309 344.955 159.945 344.856 160.513 344.659C161.089 344.455 161.585 344.152 162.002 343.75C162.418 343.341 162.74 342.833 162.968 342.227L165.559 342.955C165.286 343.833 164.827 344.606 164.184 345.273C163.54 345.932 162.744 346.447 161.797 346.818C160.85 347.182 159.786 347.364 158.604 347.364ZM175.687 347.409C174.581 347.409 173.577 347.201 172.676 346.784C171.774 346.36 171.058 345.75 170.528 344.955C169.998 344.152 169.733 343.182 169.733 342.045C169.733 341.045 169.93 340.235 170.324 339.614C170.717 338.985 171.244 338.492 171.903 338.136C172.562 337.78 173.289 337.515 174.085 337.341C174.888 337.159 175.695 337.015 176.505 336.909C177.566 336.773 178.426 336.67 179.085 336.602C179.752 336.527 180.236 336.402 180.539 336.227C180.85 336.053 181.005 335.75 181.005 335.318V335.227C181.005 334.106 180.699 333.235 180.085 332.614C179.479 331.992 178.558 331.682 177.324 331.682C176.043 331.682 175.039 331.962 174.312 332.523C173.585 333.083 173.074 333.682 172.778 334.318L170.233 333.409C170.687 332.348 171.293 331.523 172.051 330.932C172.816 330.333 173.649 329.917 174.551 329.682C175.46 329.439 176.354 329.318 177.233 329.318C177.793 329.318 178.437 329.386 179.164 329.523C179.899 329.652 180.608 329.92 181.289 330.33C181.979 330.739 182.551 331.356 183.005 332.182C183.46 333.008 183.687 334.114 183.687 335.5V347H181.005V344.636H180.869C180.687 345.015 180.384 345.42 179.96 345.852C179.536 346.284 178.971 346.652 178.267 346.955C177.562 347.258 176.702 347.409 175.687 347.409ZM176.096 345C177.157 345 178.051 344.792 178.778 344.375C179.513 343.958 180.066 343.42 180.437 342.761C180.816 342.102 181.005 341.409 181.005 340.682V338.227C180.892 338.364 180.642 338.489 180.255 338.602C179.877 338.708 179.437 338.803 178.937 338.886C178.445 338.962 177.964 339.03 177.494 339.091C177.032 339.144 176.657 339.189 176.369 339.227C175.672 339.318 175.02 339.466 174.414 339.67C173.816 339.867 173.331 340.167 172.96 340.568C172.596 340.962 172.414 341.5 172.414 342.182C172.414 343.114 172.759 343.818 173.449 344.295C174.145 344.765 175.028 345 176.096 345ZM191.904 323.727V347H189.222V323.727H191.904ZM205.047 329.545V331.818H196.001V329.545H205.047ZM198.638 325.364H201.319V342C201.319 342.758 201.429 343.326 201.649 343.705C201.876 344.076 202.164 344.326 202.513 344.455C202.869 344.576 203.244 344.636 203.638 344.636C203.933 344.636 204.175 344.621 204.365 344.591C204.554 344.553 204.706 344.523 204.819 344.5L205.365 346.909C205.183 346.977 204.929 347.045 204.604 347.114C204.278 347.189 203.865 347.227 203.365 347.227C202.607 347.227 201.865 347.064 201.138 346.739C200.418 346.413 199.819 345.917 199.342 345.25C198.872 344.583 198.638 343.742 198.638 342.727V325.364ZM212.778 336.5V347H210.096V323.727H212.778V332.273H213.005C213.414 331.371 214.028 330.655 214.846 330.125C215.672 329.587 216.77 329.318 218.141 329.318C219.331 329.318 220.372 329.557 221.266 330.034C222.16 330.504 222.853 331.227 223.346 332.205C223.846 333.174 224.096 334.409 224.096 335.909V347H221.414V336.091C221.414 334.705 221.054 333.633 220.334 332.875C219.622 332.11 218.634 331.727 217.369 331.727C216.49 331.727 215.702 331.913 215.005 332.284C214.315 332.655 213.77 333.197 213.369 333.909C212.975 334.621 212.778 335.485 212.778 336.5ZM233.642 343.818L233.46 345.045C233.331 345.909 233.134 346.833 232.869 347.818C232.612 348.803 232.343 349.731 232.062 350.602C231.782 351.473 231.551 352.167 231.369 352.682H229.324C229.422 352.197 229.551 351.557 229.71 350.761C229.869 349.966 230.028 349.076 230.188 348.091C230.354 347.114 230.491 346.114 230.597 345.091L230.733 343.818H233.642ZM261.982 329.545C261.845 328.394 261.292 327.5 260.323 326.864C259.353 326.227 258.164 325.909 256.754 325.909C255.724 325.909 254.823 326.076 254.05 326.409C253.285 326.742 252.686 327.201 252.254 327.784C251.83 328.367 251.618 329.03 251.618 329.773C251.618 330.394 251.766 330.928 252.061 331.375C252.364 331.814 252.751 332.182 253.22 332.477C253.69 332.765 254.182 333.004 254.698 333.193C255.213 333.375 255.686 333.523 256.118 333.636L258.482 334.273C259.088 334.432 259.762 334.652 260.504 334.932C261.254 335.212 261.97 335.595 262.652 336.08C263.342 336.557 263.91 337.17 264.357 337.92C264.804 338.67 265.027 339.591 265.027 340.682C265.027 341.939 264.698 343.076 264.039 344.091C263.387 345.106 262.432 345.913 261.175 346.511C259.925 347.11 258.406 347.409 256.618 347.409C254.951 347.409 253.508 347.14 252.289 346.602C251.076 346.064 250.122 345.314 249.425 344.352C248.736 343.39 248.345 342.273 248.254 341H251.164C251.239 341.879 251.535 342.606 252.05 343.182C252.573 343.75 253.232 344.174 254.027 344.455C254.83 344.727 255.694 344.864 256.618 344.864C257.694 344.864 258.66 344.689 259.516 344.341C260.372 343.985 261.05 343.492 261.55 342.864C262.05 342.227 262.3 341.485 262.3 340.636C262.3 339.864 262.084 339.235 261.652 338.75C261.22 338.265 260.652 337.871 259.948 337.568C259.243 337.265 258.482 337 257.664 336.773L254.8 335.955C252.982 335.432 251.542 334.686 250.482 333.716C249.421 332.746 248.891 331.477 248.891 329.909C248.891 328.606 249.243 327.47 249.948 326.5C250.66 325.523 251.614 324.765 252.811 324.227C254.016 323.682 255.361 323.409 256.845 323.409C258.345 323.409 259.679 323.678 260.845 324.216C262.012 324.746 262.936 325.473 263.618 326.398C264.307 327.322 264.671 328.371 264.709 329.545H261.982ZM269.937 347V329.545H272.619V347H269.937ZM271.301 326.636C270.778 326.636 270.327 326.458 269.948 326.102C269.577 325.746 269.392 325.318 269.392 324.818C269.392 324.318 269.577 323.89 269.948 323.534C270.327 323.178 270.778 323 271.301 323C271.823 323 272.27 323.178 272.642 323.534C273.02 323.89 273.21 324.318 273.21 324.818C273.21 325.318 273.02 325.746 272.642 326.102C272.27 326.458 271.823 326.636 271.301 326.636ZM278.171 347V329.545H280.762V332.273H280.989C281.353 331.341 281.94 330.617 282.75 330.102C283.561 329.58 284.534 329.318 285.671 329.318C286.822 329.318 287.781 329.58 288.546 330.102C289.319 330.617 289.921 331.341 290.353 332.273H290.534C290.981 331.371 291.652 330.655 292.546 330.125C293.44 329.587 294.512 329.318 295.762 329.318C297.322 329.318 298.599 329.807 299.591 330.784C300.584 331.754 301.08 333.265 301.08 335.318V347H298.398V335.318C298.398 334.03 298.046 333.11 297.341 332.557C296.637 332.004 295.807 331.727 294.853 331.727C293.625 331.727 292.675 332.098 292 332.841C291.326 333.576 290.989 334.508 290.989 335.636V347H288.262V335.045C288.262 334.053 287.94 333.254 287.296 332.648C286.652 332.034 285.822 331.727 284.807 331.727C284.11 331.727 283.459 331.913 282.853 332.284C282.254 332.655 281.769 333.17 281.398 333.83C281.034 334.481 280.853 335.235 280.853 336.091V347H278.171ZM306.623 353.545V329.545H309.214V332.318H309.532C309.729 332.015 310.002 331.629 310.351 331.159C310.707 330.682 311.214 330.258 311.873 329.886C312.54 329.508 313.441 329.318 314.578 329.318C316.048 329.318 317.343 329.686 318.464 330.42C319.585 331.155 320.46 332.197 321.089 333.545C321.718 334.894 322.032 336.485 322.032 338.318C322.032 340.167 321.718 341.769 321.089 343.125C320.46 344.473 319.589 345.519 318.476 346.261C317.362 346.996 316.078 347.364 314.623 347.364C313.502 347.364 312.604 347.178 311.93 346.807C311.256 346.428 310.737 346 310.373 345.523C310.01 345.038 309.729 344.636 309.532 344.318H309.305V353.545H306.623ZM309.26 338.273C309.26 339.591 309.453 340.754 309.839 341.761C310.226 342.761 310.79 343.545 311.532 344.114C312.275 344.674 313.184 344.955 314.26 344.955C315.381 344.955 316.316 344.659 317.066 344.068C317.824 343.47 318.392 342.667 318.771 341.659C319.157 340.644 319.351 339.515 319.351 338.273C319.351 337.045 319.161 335.939 318.782 334.955C318.411 333.962 317.847 333.178 317.089 332.602C316.339 332.019 315.396 331.727 314.26 331.727C313.169 331.727 312.252 332.004 311.51 332.557C310.767 333.102 310.207 333.867 309.828 334.852C309.449 335.83 309.26 336.97 309.26 338.273ZM329.445 323.727V347H326.763V323.727H329.445ZM334.997 347V329.545H337.679V347H334.997ZM336.361 326.636C335.838 326.636 335.387 326.458 335.008 326.102C334.637 325.746 334.452 325.318 334.452 324.818C334.452 324.318 334.637 323.89 335.008 323.534C335.387 323.178 335.838 323 336.361 323C336.883 323 337.33 323.178 337.702 323.534C338.08 323.89 338.27 324.318 338.27 324.818C338.27 325.318 338.08 325.746 337.702 326.102C337.33 326.458 336.883 326.636 336.361 326.636ZM351.004 329.545V331.818H341.594V329.545H351.004ZM344.413 347V327.136C344.413 326.136 344.647 325.303 345.117 324.636C345.587 323.97 346.197 323.47 346.947 323.136C347.697 322.803 348.488 322.636 349.322 322.636C349.981 322.636 350.519 322.689 350.935 322.795C351.352 322.902 351.663 323 351.867 323.091L351.094 325.409C350.958 325.364 350.769 325.307 350.526 325.239C350.291 325.17 349.981 325.136 349.594 325.136C348.708 325.136 348.068 325.36 347.674 325.807C347.288 326.254 347.094 326.909 347.094 327.773V347H344.413ZM355.402 347V329.545H358.084V347H355.402ZM356.766 326.636C356.243 326.636 355.792 326.458 355.413 326.102C355.042 325.746 354.857 325.318 354.857 324.818C354.857 324.318 355.042 323.89 355.413 323.534C355.792 323.178 356.243 323 356.766 323C357.288 323 357.735 323.178 358.107 323.534C358.485 323.89 358.675 324.318 358.675 324.818C358.675 325.318 358.485 325.746 358.107 326.102C357.735 326.458 357.288 326.636 356.766 326.636ZM370.954 347.364C369.272 347.364 367.821 346.992 366.602 346.25C365.39 345.5 364.454 344.455 363.795 343.114C363.143 341.765 362.818 340.197 362.818 338.409C362.818 336.621 363.143 335.045 363.795 333.682C364.454 332.311 365.371 331.242 366.545 330.477C367.727 329.705 369.106 329.318 370.681 329.318C371.59 329.318 372.488 329.47 373.374 329.773C374.261 330.076 375.068 330.568 375.795 331.25C376.522 331.924 377.102 332.818 377.534 333.932C377.965 335.045 378.181 336.417 378.181 338.045V339.182H364.727V336.864H375.454C375.454 335.879 375.257 335 374.863 334.227C374.477 333.455 373.924 332.845 373.204 332.398C372.492 331.951 371.651 331.727 370.681 331.727C369.613 331.727 368.689 331.992 367.909 332.523C367.136 333.045 366.541 333.727 366.124 334.568C365.708 335.409 365.499 336.311 365.499 337.273V338.818C365.499 340.136 365.727 341.254 366.181 342.17C366.643 343.08 367.284 343.773 368.102 344.25C368.92 344.72 369.871 344.955 370.954 344.955C371.659 344.955 372.295 344.856 372.863 344.659C373.439 344.455 373.935 344.152 374.352 343.75C374.768 343.341 375.09 342.833 375.318 342.227L377.909 342.955C377.636 343.833 377.177 344.606 376.534 345.273C375.89 345.932 375.094 346.447 374.147 346.818C373.2 347.182 372.136 347.364 370.954 347.364ZM389.492 347.364C388.037 347.364 386.753 346.996 385.639 346.261C384.526 345.519 383.655 344.473 383.026 343.125C382.397 341.769 382.083 340.167 382.083 338.318C382.083 336.485 382.397 334.894 383.026 333.545C383.655 332.197 384.53 331.155 385.651 330.42C386.772 329.686 388.067 329.318 389.537 329.318C390.674 329.318 391.571 329.508 392.23 329.886C392.897 330.258 393.405 330.682 393.753 331.159C394.109 331.629 394.386 332.015 394.583 332.318H394.81V323.727H397.492V347H394.901V344.318H394.583C394.386 344.636 394.105 345.038 393.742 345.523C393.378 346 392.859 346.428 392.185 346.807C391.511 347.178 390.613 347.364 389.492 347.364ZM389.855 344.955C390.931 344.955 391.84 344.674 392.583 344.114C393.325 343.545 393.889 342.761 394.276 341.761C394.662 340.754 394.855 339.591 394.855 338.273C394.855 336.97 394.666 335.83 394.287 334.852C393.908 333.867 393.348 333.102 392.605 332.557C391.863 332.004 390.946 331.727 389.855 331.727C388.719 331.727 387.772 332.019 387.014 332.602C386.264 333.178 385.7 333.962 385.321 334.955C384.95 335.939 384.764 337.045 384.764 338.273C384.764 339.515 384.954 340.644 385.333 341.659C385.719 342.667 386.287 343.47 387.037 344.068C387.795 344.659 388.734 344.955 389.855 344.955Z" fill="#65758B"/>
<defs>
<filter id="filter0_d_79_542" x="147.5" y="3.5" width="158" height="158" filterUnits="userSpaceOnUse" color-interpolation-filters="sRGB">
<feFlood flood-opacity="0" result="BackgroundImageFix"/>
<feColorMatrix in="SourceAlpha" type="matrix" values="0 0 0 0 0 0 0 0 0 0 0 0 0 0 0 0 0 0 127 0" result="hardAlpha"/>
<feOffset dx="2" dy="4"/>
<feGaussianBlur stdDeviation="2"/>
<feComposite in2="hardAlpha" operator="out"/>
<feColorMatrix type="matrix" values="0 0 0 0 0 0 0 0 0 0 0 0 0 0 0 0 0 0 0.2 0"/>
<feBlend mode="normal" in2="BackgroundImageFix" result="effect1_dropShadow_79_542"/>
<feBlend mode="normal" in="SourceGraphic" in2="effect1_dropShadow_79_542" result="shape"/>
</filter>
</defs>
</svg>
