<svg width="50" height="50" viewBox="0 0 50 50" fill="none" xmlns="http://www.w3.org/2000/svg">
<g clip-path="url(#clip0_232_329)">
<path d="M25.332 5.5C28.3021 5.5 31.1904 6.47522 33.5527 8.27539C35.9149 10.0755 37.6214 12.6013 38.4092 15.4648C39.197 18.3284 39.0231 21.3718 37.9141 24.127C36.805 26.8821 34.8216 29.1966 32.2695 30.7158L31.3242 31.2793L32.3701 31.6211C37.6006 33.3302 42.0869 36.9367 45.001 41.9746L45.0078 41.9854C45.0819 42.1062 45.131 42.2408 45.1523 42.3809C45.1736 42.521 45.1666 42.6644 45.1318 42.8018C45.097 42.9391 45.0347 43.0686 44.9492 43.1816C44.8636 43.2948 44.7557 43.39 44.6328 43.4609C44.51 43.5318 44.3741 43.5771 44.2334 43.5947C44.0927 43.6123 43.95 43.6019 43.8135 43.5635C43.6769 43.525 43.5493 43.4596 43.4385 43.3711C43.3276 43.2825 43.2357 43.1725 43.168 43.0479L43.1611 43.0361C39.3941 36.5259 32.7274 32.6299 25.332 32.6299C18.1677 32.6299 11.687 36.2862 7.86426 42.4336L7.50293 43.0361L7.49609 43.0479C7.42839 43.1725 7.33645 43.2825 7.22559 43.3711C7.11475 43.4596 6.98713 43.525 6.85059 43.5635C6.7141 43.6019 6.57139 43.6123 6.43066 43.5947C6.28992 43.5771 6.15408 43.5319 6.03125 43.4609C5.90839 43.39 5.80045 43.2948 5.71484 43.1816C5.62939 43.0686 5.56707 42.9391 5.53223 42.8018C5.49745 42.6644 5.49042 42.521 5.51172 42.3809C5.53307 42.2407 5.58311 42.1062 5.65723 41.9854L5.66309 41.9746C8.57714 36.9348 13.0636 33.3283 18.2939 31.6211L19.3408 31.2793L18.3945 30.7158C15.8426 29.1966 13.86 26.882 12.751 24.127C11.6419 21.3717 11.468 18.3285 12.2559 15.4648C13.0437 12.6014 14.7492 10.0755 17.1113 8.27539C19.4736 6.47523 22.362 5.50002 25.332 5.5ZM27.5635 7.84961C25.3448 7.40831 23.045 7.63531 20.9551 8.50098C18.8652 9.36666 17.079 10.833 15.8223 12.7139C14.5657 14.5946 13.8946 16.8055 13.8945 19.0674V19.0684C13.8978 22.1006 15.1039 25.0082 17.248 27.1523C19.2582 29.1623 21.939 30.3472 24.7646 30.4902L25.332 30.5049C27.5941 30.5049 29.8057 29.8348 31.6865 28.5781C33.5674 27.3214 35.0337 25.5343 35.8994 23.4443C36.7649 21.3547 36.991 19.0553 36.5498 16.8369C36.1085 14.6184 35.0194 12.58 33.4199 10.9805C31.8204 9.38091 29.7821 8.29093 27.5635 7.84961Z" fill="#0F64E2" stroke="#0F64E2"/>
</g>
<defs>
<clipPath id="clip0_232_329">
<rect width="50" height="50" fill="white"/>
</clipPath>
</defs>
</svg>
