<svg width="64" height="64" viewBox="0 0 64 64" fill="none" xmlns="http://www.w3.org/2000/svg">
<g clip-path="url(#clip0_242_150)">
<rect width="64" height="64" rx="16" fill="#F9AB24" fill-opacity="0.1"/>
<path d="M37.3337 44V41.3333C37.3337 39.9188 36.7718 38.5623 35.7716 37.5621C34.7714 36.5619 33.4148 36 32.0003 36H24.0003C22.5858 36 21.2293 36.5619 20.2291 37.5621C19.2289 38.5623 18.667 39.9188 18.667 41.3333V44" stroke="#F9AB24" stroke-width="2.66667" stroke-linecap="round" stroke-linejoin="round"/>
<path d="M28.0003 30.6667C30.9458 30.6667 33.3337 28.2789 33.3337 25.3333C33.3337 22.3878 30.9458 20 28.0003 20C25.0548 20 22.667 22.3878 22.667 25.3333C22.667 28.2789 25.0548 30.6667 28.0003 30.6667Z" stroke="#F9AB24" stroke-width="2.66667" stroke-linecap="round" stroke-linejoin="round"/>
<path d="M45.333 44V41.3333C45.3321 40.1516 44.9388 39.0037 44.2148 38.0698C43.4908 37.1358 42.4772 36.4688 41.333 36.1733" stroke="#F9AB24" stroke-width="2.66667" stroke-linecap="round" stroke-linejoin="round"/>
<path d="M37.333 20.1733C38.4802 20.4671 39.4971 21.1343 40.2232 22.0698C40.9493 23.0052 41.3435 24.1558 41.3435 25.34C41.3435 26.5242 40.9493 27.6748 40.2232 28.6103C39.4971 29.5457 38.4802 30.2129 37.333 30.5067" stroke="#F9AB24" stroke-width="2.66667" stroke-linecap="round" stroke-linejoin="round"/>
</g>
<defs>
<clipPath id="clip0_242_150">
<rect width="64" height="64" fill="white"/>
</clipPath>
</defs>
</svg>
