<svg width="50" height="50" viewBox="0 0 50 50" fill="none" xmlns="http://www.w3.org/2000/svg">
<path d="M39.7979 29.207C38.8501 28.8144 37.807 28.712 36.8008 28.9121C35.7945 29.1123 34.87 29.6065 34.1445 30.332C33.419 31.0575 32.9248 31.982 32.7246 32.9883C32.5245 33.9945 32.6269 35.0376 33.0195 35.9854C33.4122 36.9332 34.0776 37.7435 34.9307 38.3135C35.7837 38.8834 36.7866 39.1875 37.8125 39.1875C39.1883 39.1875 40.5076 38.6408 41.4805 37.668C42.4533 36.6951 43 35.3758 43 34C43 32.9741 42.6959 31.9712 42.126 31.1182C41.556 30.2651 40.7457 29.5997 39.7979 29.207ZM37.8125 32.1562C38.3015 32.1562 38.7704 32.3505 39.1162 32.6963C39.462 33.0421 39.6562 33.511 39.6562 34C39.6562 34.3646 39.5483 34.7212 39.3457 35.0244C39.1432 35.3275 38.8552 35.5636 38.5186 35.7031C38.1818 35.8426 37.8107 35.8796 37.4531 35.8086C37.0955 35.7375 36.7666 35.5616 36.5088 35.3037C36.2509 35.0459 36.075 34.717 36.0039 34.3594C35.9329 34.0018 35.9699 33.6307 36.1094 33.2939C36.249 32.9573 36.485 32.6693 36.7881 32.4668C37.0913 32.2642 37.4479 32.1563 37.8125 32.1562ZM16.4375 31.8965L16 31.8418C13.1005 31.4765 10.4342 30.0656 8.50098 27.874C6.56777 25.6822 5.50038 22.86 5.5 19.9375V10.5625C5.5 10.2807 5.61227 10.0108 5.81152 9.81152C6.01078 9.61227 6.28071 9.5 6.5625 9.5H11.25C11.5318 9.5 11.8017 9.61227 12.001 9.81152C12.2002 10.0108 12.3125 10.2807 12.3125 10.5625C12.3125 10.8443 12.2002 11.1142 12.001 11.3135C11.8017 11.5127 11.5318 11.625 11.25 11.625H7.625V19.9375L7.63672 20.4268C7.6932 21.5674 7.94724 22.6911 8.38867 23.7471C8.8931 24.9537 9.63264 26.0481 10.5635 26.9668C11.4944 27.8855 12.5992 28.6102 13.8125 29.0986C15.0258 29.587 16.324 29.8299 17.6318 29.8125C23.0131 29.7422 27.375 25.232 27.375 19.7754V11.625H23.75C23.4682 11.625 23.1983 11.5127 22.999 11.3135C22.7998 11.1142 22.6875 10.8443 22.6875 10.5625C22.6875 10.2807 22.7998 10.0108 22.999 9.81152C23.1983 9.61227 23.4682 9.5 23.75 9.5H28.4375C28.7193 9.5 28.9892 9.61227 29.1885 9.81152C29.3877 10.0108 29.5 10.2807 29.5 10.5625V19.7754C29.5 25.9392 24.8945 31.0867 18.999 31.8398L18.5625 31.8955V40.25C18.5625 42.0402 19.2732 43.7576 20.5391 45.0234C21.8049 46.2893 23.5223 47 25.3125 47H30.001C31.5334 46.9974 33.0196 46.4744 34.2158 45.5166C35.4121 44.5587 36.2474 43.2224 36.585 41.7275L36.6953 41.2393L36.207 41.1289C34.441 40.7321 32.885 39.6946 31.8398 38.2168C30.7946 36.7388 30.3343 34.9255 30.5488 33.1279C30.7634 31.3305 31.6373 29.6768 33.001 28.4863C34.3647 27.2958 36.1216 26.6535 37.9316 26.6836C39.7416 26.7137 41.4765 27.4133 42.7998 28.6484C44.1232 29.8837 44.9411 31.5665 45.0957 33.3701C45.2503 35.1737 44.7305 36.9707 43.6367 38.4131C42.5429 39.8555 40.9523 40.8409 39.1738 41.1787L38.7676 41.2559V41.6299C38.4367 43.7117 37.3778 45.6093 35.7773 46.9824C34.1685 48.3627 32.1188 49.1223 29.999 49.125H25.3135C22.9603 49.1226 20.704 48.1864 19.04 46.5225C17.3761 44.8585 16.4399 42.6022 16.4375 40.249V31.8965Z" fill="#4CAE4F" stroke="#4CAE4F"/>
</svg>
